<svg width="512" height="512" viewBox="0 0 512 512" fill="none" xmlns="http://www.w3.org/2000/svg">
<path d="M512 426.667C512 473.795 473.795 512 426.667 512L85.3334 512C38.2051 512 7.21084e-05 473.795 6.79883e-05 426.667L3.8148e-05 85.3333C3.40279e-05 38.205 38.2051 -2.07979e-06 85.3334 -6.19988e-06L426.667 -3.60402e-05C473.795 -4.01603e-05 512 38.205 512 85.3333L512 426.667Z" fill="#22C55E"/>
<path fill-rule="evenodd" clip-rule="evenodd" d="M105.813 109.107C105.813 106.286 108.104 104 110.93 104H150.155C168.992 104 184.263 119.242 184.263 138.045V227.413H252.48H291.705C310.543 227.413 325.813 242.655 325.813 261.458V305.716V401.893C325.813 404.714 323.523 407 320.697 407H281.472C262.635 407 247.364 391.758 247.364 372.955V310.823H184.263V401.893C184.263 404.714 181.972 407 179.147 407H139.922C121.084 407 105.813 391.758 105.813 372.955V305.716V232.52V109.107Z" fill="white"/>
<path d="M341.333 347.84C341.333 345.189 343.483 343.04 346.133 343.04H373.333C391.007 343.04 405.333 357.367 405.333 375.04V402.24C405.333 404.891 403.184 407.04 400.533 407.04H346.133C343.483 407.04 341.333 404.891 341.333 402.24V347.84Z" fill="#86EFAC"/>
</svg>
